# File created by Blade
# Date/Time:  Wed Jan 21 16:14:13 2015
# Frame Rate: 120.000 fps
#------------------------------------------------------
:FULLY-SPECIFIED
:DEGREES
224
root 18.578049 35.599658 -19.537020 -169.866488 -2.637892 -178.685505
Spine -18.451795 0.369591 0.411731
Head 10.145184 -0.766809 1.649946
LeftShoulder -15.134718 -25.219308 9.206372
LeftArm -28.094102 -14.053743 -42.957217
LeftForeArm -1.259972 0.000000 -1.866332
LeftHand -0.766917 -0.000000 -2.691385
LeftHandThumb1 -26.253704 0.000000 33.147579
RightShoulder -15.066195 -7.681533 1.569122
RightArm -0.007966 43.716369 54.384505
RightForeArm -27.551173 -0.000000 7.870210
RightHand -4.361898 -0.000000 1.407054
RightHandThumb1 -24.326973 -0.000000 -32.862282
LeftUpLeg -3.951646 8.411936 -0.068597
LeftLeg -4.624261 -0.000000 0.000000
LeftFoot -20.746649 25.378331 -11.874544
LeftToeBase 27.312934 -0.000000 -0.000000
RightUpLeg -4.795257 -6.171000 2.382129
RightLeg -1.974796 -0.000000 0.000000
RightFoot -21.167448 -28.165742 14.248006
RightToeBase 23.544100 -0.000000 -0.000000
225
root 18.580455 35.598739 -19.551755 -169.920353 -2.755740 -178.702274
Spine -18.393320 0.287599 0.399470
Head 10.107284 -0.784953 1.655816
LeftShoulder -15.279914 -24.951426 8.944307
LeftArm -28.606442 -14.487701 -43.777004
LeftForeArm -1.421245 -0.000000 -1.703730
LeftHand -0.788517 -0.000000 -2.533311
LeftHandThumb1 -26.253704 0.000000 33.147579
RightShoulder -15.230768 -7.890297 1.995788
RightArm -0.016288 42.723413 55.745349
RightForeArm -27.292508 -0.000000 8.003215
RightHand -4.377287 -0.000000 1.312251
RightHandThumb1 -24.326973 -0.000000 -32.862282
LeftUpLeg -3.900283 8.356469 -0.061151
LeftLeg -4.608481 -0.000000 0.000000
LeftFoot -20.781894 25.336899 -11.906229
LeftToeBase 27.403162 -0.000000 -0.000000
RightUpLeg -4.696239 -6.264404 2.380034
RightLeg -1.997317 -0.000000 0.000000
RightFoot -21.186785 -28.166717 14.296497
RightToeBase 23.416749 -0.000000 -0.000000
226
root 18.583282 35.596670 -19.567999 -169.990431 -2.847535 -178.726883
Spine -18.313951 0.212301 0.391891
Head 10.051660 -0.792720 1.607467
LeftShoulder -15.336448 -24.828870 8.626974
LeftArm -29.273166 -14.049796 -44.962132
LeftForeArm -2.610814 -0.000000 -1.250515
LeftHand -0.906423 -0.000000 -2.153999
LeftHandThumb1 -26.253704 0.000000 33.147579
RightShoulder -15.370207 -8.177382 2.383847
RightArm 0.077418 42.046494 57.228646
RightForeArm -27.228233 0.000000 8.136736
RightHand -4.452543 -0.000000 1.116338
RightHandThumb1 -24.326973 -0.000000 -32.862282
LeftUpLeg -3.816343 8.305838 -0.057286
LeftLeg -4.605646 -0.000000 0.000000
LeftFoot -20.794872 25.309124 -11.932951
LeftToeBase 27.371696 -0.000000 -0.000000
RightUpLeg -4.574439 -6.327834 2.364007
RightLeg -2.027964 -0.000000 0.000000
RightFoot -21.222348 -28.233296 14.210474
RightToeBase 23.566714 -0.000000 -0.000000
227
root 18.583483 35.595100 -19.581846 -170.046767 -2.886916 -178.754802
Spine -18.259113 0.180158 0.373796
Head 10.039186 -0.792309 1.572841
LeftShoulder -15.452111 -24.552206 8.279427
LeftArm -29.757792 -14.334624 -45.807249
LeftForeArm -3.243630 0.000000 -0.957640
LeftHand -0.939959 -0.000000 -1.874198
LeftHandThumb1 -26.253704 0.000000 33.147579
RightShoulder -15.485646 -8.461170 2.752311
RightArm 0.151425 41.414819 58.706797
RightForeArm -27.013183 -0.000000 8.208019
RightHand -4.335663 -0.000000 0.809530
RightHandThumb1 -24.326973 -0.000000 -32.862282
LeftUpLeg -3.742135 8.312490 -0.072218
LeftLeg -4.604724 -0.000000 0.000000
LeftFoot -20.774870 25.295562 -11.916335
LeftToeBase 27.295004 -0.000000 -0.000000
RightUpLeg -4.479523 -6.371681 2.336351
RightLeg -2.049915 -0.000000 0.000000
RightFoot -21.230586 -28.240114 14.158720
RightToeBase 23.593895 -0.000000 -0.000000
228
root 18.588706 35.593775 -19.599247 -170.147531 -2.928540 -178.757577
Spine -18.146697 0.167094 0.367410
Head 10.000616 -0.800697 1.544628
LeftShoulder -15.524525 -24.341814 7.881662
LeftArm -30.208414 -14.574586 -46.598230
LeftForeArm -3.985977 -0.000000 -0.755012
LeftHand -0.866103 -0.000000 -1.657532
LeftHandThumb1 -26.253704 0.000000 33.147579
RightShoulder -15.590015 -8.640384 3.121759
RightArm 0.076842 40.916868 60.079892
RightForeArm -26.815398 0.000000 8.280842
RightHand -4.091683 -0.000000 0.442258
RightHandThumb1 -24.326973 -0.000000 -32.862282
LeftUpLeg -3.620669 8.323636 -0.041199
LeftLeg -4.601790 -0.000000 0.000000
LeftFoot -20.780314 25.236571 -11.921118
LeftToeBase 27.079533 -0.000000 -0.000000
RightUpLeg -4.342131 -6.357839 2.331280
RightLeg -2.055427 -0.000000 0.000000
RightFoot -21.267221 -28.292512 14.164783
RightToeBase 23.558345 -0.000000 -0.000000
229
root 18.590640 35.591835 -19.615321 -170.212470 -3.010484 -178.772906
Spine -18.084011 0.108382 0.366316
Head 9.975251 -0.836170 1.496465
LeftShoulder -15.586763 -24.101841 7.494511
LeftArm -30.683210 -15.080281 -47.265610
LeftForeArm -4.468688 -0.000000 -0.522086
LeftHand -0.914482 -0.000000 -1.106569
LeftHandThumb1 -26.253704 0.000000 33.147579
RightShoulder -15.697587 -8.854388 3.454624
RightArm 0.061733 40.143260 61.458761
RightForeArm -26.135198 -0.000000 8.248898
RightHand -3.857599 0.000000 0.156811
RightHandThumb1 -24.326973 -0.000000 -32.862282
LeftUpLeg -3.551338 8.274259 -0.029790
LeftLeg -4.572009 -0.000000 0.000000
LeftFoot -20.840985 25.179848 -11.954342
LeftToeBase 27.380303 -0.000000 -0.000000
RightUpLeg -4.231875 -6.428328 2.324052
RightLeg -2.077396 -0.000000 0.000000
RightFoot -21.293656 -28.349802 14.132733
RightToeBase 23.592144 -0.000000 -0.000000
230
root 18.590875 35.587816 -19.650937 -170.482091 -3.140009 -178.780097
Spine -17.807347 0.021432 0.394585
Head 9.968305 -0.884048 1.410256
LeftShoulder -15.647037 -23.872330 7.038082
LeftArm -31.066821 -15.943455 -47.657146
LeftForeArm -4.469536 -0.000000 -0.463535
LeftHand -0.814593 -0.000000 -1.111889
LeftHandThumb1 -26.253704 0.000000 33.147579
RightShoulder -15.839467 -9.082242 3.817809
RightArm 0.172887 39.730302 62.883015
RightForeArm -25.530241 -0.000000 8.148906
RightHand -3.588733 -0.000000 -0.142673
RightHandThumb1 -24.326973 -0.000000 -32.862282
LeftUpLeg -3.207946 8.205357 0.027324
LeftLeg -4.630998 -0.000000 0.000000
LeftFoot -20.842760 25.144700 -11.940895
LeftToeBase 27.400086 -0.000000 -0.000000
RightUpLeg -3.835122 -6.620953 2.308897
RightLeg -2.199337 -0.000000 0.000000
RightFoot -21.297911 -28.261386 14.203746
RightToeBase 23.493603 -0.000000 -0.000000
231
root 18.589697 35.585313 -19.661154 -170.481718 -3.117584 -178.803806
Spine -17.819605 0.044282 0.390812
Head 9.955748 -0.897765 1.312072
LeftShoulder -15.681708 -23.767958 6.631238
LeftArm -31.586729 -15.922465 -48.507804
LeftForeArm -5.498229 -0.000000 -0.119986
LeftHand -0.895907 -0.000000 -0.708118
LeftHandThumb1 -26.253704 0.000000 33.147579
RightShoulder -15.943144 -9.141331 4.066011
RightArm 0.056466 39.447204 64.188711
RightForeArm -25.228332 -0.000000 8.019459
RightHand -3.367632 -0.000000 -0.511173
RightHandThumb1 -24.326973 -0.000000 -32.862282
LeftUpLeg -3.196989 8.262043 -0.004023
LeftLeg -4.619549 -0.000000 0.000000
LeftFoot -20.885291 25.111460 -11.966030
LeftToeBase 27.436033 -0.000000 -0.000000
RightUpLeg -3.828492 -6.557629 2.273603
RightLeg -2.175171 -0.000000 0.000000
RightFoot -21.329923 -28.303900 14.156080
RightToeBase 23.495620 -0.000000 -0.000000
232
root 18.590203 35.582874 -19.674553 -170.493963 -3.034990 -178.809323
Spine -17.841018 0.167231 0.383439
Head 9.984581 -0.951598 1.204105
LeftShoulder -15.705652 -23.646930 6.217248
LeftArm -32.012623 -16.077503 -49.250725
LeftForeArm -6.134269 -0.000000 0.132302
LeftHand -1.057205 0.000000 -0.502033
LeftHandThumb1 -26.253704 0.000000 33.147579
RightShoulder -16.101696 -9.235967 4.329037
RightArm -0.018603 39.046315 65.492024
RightForeArm -24.861369 -0.000000 7.923072
RightHand -3.213133 -0.000000 -0.411049
RightHandThumb1 -24.326973 -0.000000 -32.862282
LeftUpLeg -3.142580 8.358580 -0.016457
LeftLeg -4.638450 -0.000000 0.000000
LeftFoot -20.875332 25.113478 -11.935591
LeftToeBase 27.353934 -0.000000 -0.000000
RightUpLeg -3.806343 -6.422081 2.248529
RightLeg -2.159926 -0.000000 0.000000
RightFoot -21.355968 -28.360809 14.116343
RightToeBase 23.460004 -0.000000 -0.000000
